<?xml version="1.0" encoding="UTF-8"?>
<svg width="600" height="400" viewBox="0 0 600 400" fill="none" xmlns="http://www.w3.org/2000/svg">
    <!-- Background Shape -->
    <path d="M50 50 L550 50 Q580 50 580 80 L580 320 Q580 350 550 350 L50 350 Q20 350 20 320 L20 80 Q20 50 50 50 Z" 
          fill="#EBF3FF" stroke="#3498db" stroke-width="2"/>
    
    <!-- Shield Icon -->
    <path d="M300 100 L380 130 Q390 133 390 143 L390 230 Q390 280 300 320 Q210 280 210 230 L210 143 Q210 133 220 130 Z" 
          fill="#3498db" stroke="#2980b9" stroke-width="2"/>
    <path d="M300 140 L350 160 L350 220 Q350 255 300 280 Q250 255 250 220 L250 160 Z" 
          fill="#ffffff"/>
    
    <!-- Check Mark -->
    <path d="M280 200 L295 215 L320 175" 
          stroke="#2ecc71" stroke-width="8" stroke-linecap="round" stroke-linejoin="round"/>
    
    <!-- Document Icons -->
    <g transform="translate(100,150)">
        <rect x="0" y="0" width="60" height="80" rx="5" fill="#ffffff" stroke="#3498db" stroke-width="2"/>
        <line x1="10" y1="20" x2="50" y2="20" stroke="#3498db" stroke-width="2"/>
        <line x1="10" y1="40" x2="50" y2="40" stroke="#3498db" stroke-width="2"/>
        <line x1="10" y1="60" x2="30" y2="60" stroke="#3498db" stroke-width="2"/>
    </g>
    
    <g transform="translate(440,150)">
        <rect x="0" y="0" width="60" height="80" rx="5" fill="#ffffff" stroke="#3498db" stroke-width="2"/>
        <line x1="10" y1="20" x2="50" y2="20" stroke="#3498db" stroke-width="2"/>
        <line x1="10" y1="40" x2="50" y2="40" stroke="#3498db" stroke-width="2"/>
        <line x1="10" y1="60" x2="30" y2="60" stroke="#3498db" stroke-width="2"/>
    </g>
    
    <!-- Decorative Elements -->
    <circle cx="150" cy="100" r="10" fill="#2ecc71"/>
    <circle cx="450" cy="100" r="10" fill="#2ecc71"/>
    <circle cx="150" cy="300" r="10" fill="#3498db"/>
    <circle cx="450" cy="300" r="10" fill="#3498db"/>
    
    <!-- Abstract Lines -->
    <path d="M50 150 Q100 180 150 150" stroke="#3498db" stroke-width="2" fill="none"/>
    <path d="M450 150 Q500 180 550 150" stroke="#3498db" stroke-width="2" fill="none"/>
    <path d="M50 250 Q100 220 150 250" stroke="#2ecc71" stroke-width="2" fill="none"/>
    <path d="M450 250 Q500 220 550 250" stroke="#2ecc71" stroke-width="2" fill="none"/>
</svg> 